<mxfile host="app.diagrams.net" modified="2024-05-18T03:52:59.458Z" agent="Mozilla/5.0 (Windows NT 10.0; Win64; x64) AppleWebKit/537.36 (KHTML, like Gecko) Chrome/123.0.0.0 Safari/537.36 OPR/109.0.0.0" etag="heBC7zWScwM5LyPs9mqp" version="24.3.1" type="github">
  <diagram id="C5RBs43oDa-KdzZeNtuy" name="Page-1">
    <mxGraphModel dx="710" dy="734" grid="1" gridSize="10" guides="1" tooltips="1" connect="1" arrows="1" fold="1" page="1" pageScale="1" pageWidth="827" pageHeight="1169" math="0" shadow="0">
      <root>
        <mxCell id="WIyWlLk6GJQsqaUBKTNV-0" />
        <mxCell id="WIyWlLk6GJQsqaUBKTNV-1" parent="WIyWlLk6GJQsqaUBKTNV-0" />
        <mxCell id="zkfFHV4jXpPFQw0GAbJ--0" value="Usuario" style="swimlane;fontStyle=2;align=center;verticalAlign=top;childLayout=stackLayout;horizontal=1;startSize=26;horizontalStack=0;resizeParent=1;resizeLast=0;collapsible=1;marginBottom=0;rounded=0;shadow=0;strokeWidth=1;" parent="WIyWlLk6GJQsqaUBKTNV-1" vertex="1">
          <mxGeometry x="90" y="90" width="200" height="370" as="geometry">
            <mxRectangle x="230" y="140" width="160" height="26" as="alternateBounds" />
          </mxGeometry>
        </mxCell>
        <mxCell id="zkfFHV4jXpPFQw0GAbJ--1" value="- nombre: String" style="text;align=left;verticalAlign=top;spacingLeft=4;spacingRight=4;overflow=hidden;rotatable=0;points=[[0,0.5],[1,0.5]];portConstraint=eastwest;" parent="zkfFHV4jXpPFQw0GAbJ--0" vertex="1">
          <mxGeometry y="26" width="200" height="26" as="geometry" />
        </mxCell>
        <mxCell id="zkfFHV4jXpPFQw0GAbJ--2" value="- correo: String" style="text;align=left;verticalAlign=top;spacingLeft=4;spacingRight=4;overflow=hidden;rotatable=0;points=[[0,0.5],[1,0.5]];portConstraint=eastwest;rounded=0;shadow=0;html=0;" parent="zkfFHV4jXpPFQw0GAbJ--0" vertex="1">
          <mxGeometry y="52" width="200" height="26" as="geometry" />
        </mxCell>
        <mxCell id="zkfFHV4jXpPFQw0GAbJ--3" value="- contrasena: String" style="text;align=left;verticalAlign=top;spacingLeft=4;spacingRight=4;overflow=hidden;rotatable=0;points=[[0,0.5],[1,0.5]];portConstraint=eastwest;rounded=0;shadow=0;html=0;" parent="zkfFHV4jXpPFQw0GAbJ--0" vertex="1">
          <mxGeometry y="78" width="200" height="26" as="geometry" />
        </mxCell>
        <mxCell id="iiUd6FF1YS1lTuZ2aDN9-1" style="edgeStyle=orthogonalEdgeStyle;rounded=0;orthogonalLoop=1;jettySize=auto;html=1;exitX=1;exitY=0.5;exitDx=0;exitDy=0;entryX=0.963;entryY=1.077;entryDx=0;entryDy=0;entryPerimeter=0;" edge="1" parent="zkfFHV4jXpPFQw0GAbJ--0" source="zkfFHV4jXpPFQw0GAbJ--5" target="zkfFHV4jXpPFQw0GAbJ--5">
          <mxGeometry relative="1" as="geometry" />
        </mxCell>
        <mxCell id="zkfFHV4jXpPFQw0GAbJ--5" value="- cuentaBancaria: CuentaBancaria" style="text;align=left;verticalAlign=top;spacingLeft=4;spacingRight=4;overflow=hidden;rotatable=0;points=[[0,0.5],[1,0.5]];portConstraint=eastwest;" parent="zkfFHV4jXpPFQw0GAbJ--0" vertex="1">
          <mxGeometry y="104" width="200" height="26" as="geometry" />
        </mxCell>
        <mxCell id="iiUd6FF1YS1lTuZ2aDN9-8" value="+ getNombre()" style="text;html=1;align=left;verticalAlign=middle;whiteSpace=wrap;rounded=0;" vertex="1" parent="zkfFHV4jXpPFQw0GAbJ--0">
          <mxGeometry y="130" width="200" height="30" as="geometry" />
        </mxCell>
        <mxCell id="iiUd6FF1YS1lTuZ2aDN9-5" value="+setNombre()" style="text;html=1;align=left;verticalAlign=middle;whiteSpace=wrap;rounded=0;" vertex="1" parent="zkfFHV4jXpPFQw0GAbJ--0">
          <mxGeometry y="160" width="200" height="30" as="geometry" />
        </mxCell>
        <mxCell id="iiUd6FF1YS1lTuZ2aDN9-11" value="" style="endArrow=none;html=1;rounded=0;entryX=1;entryY=0;entryDx=0;entryDy=0;exitX=0;exitY=0;exitDx=0;exitDy=0;" edge="1" parent="zkfFHV4jXpPFQw0GAbJ--0" source="iiUd6FF1YS1lTuZ2aDN9-8" target="iiUd6FF1YS1lTuZ2aDN9-8">
          <mxGeometry width="50" height="50" relative="1" as="geometry">
            <mxPoint x="240" y="310" as="sourcePoint" />
            <mxPoint x="290" y="260" as="targetPoint" />
          </mxGeometry>
        </mxCell>
        <mxCell id="iiUd6FF1YS1lTuZ2aDN9-12" value="+ getCorreo&lt;span style=&quot;background-color: initial;&quot;&gt;()&lt;/span&gt;" style="text;html=1;align=left;verticalAlign=middle;whiteSpace=wrap;rounded=0;" vertex="1" parent="zkfFHV4jXpPFQw0GAbJ--0">
          <mxGeometry y="190" width="200" height="30" as="geometry" />
        </mxCell>
        <mxCell id="iiUd6FF1YS1lTuZ2aDN9-13" value="+ setCorreo()" style="text;html=1;align=left;verticalAlign=middle;whiteSpace=wrap;rounded=0;" vertex="1" parent="zkfFHV4jXpPFQw0GAbJ--0">
          <mxGeometry y="220" width="200" height="30" as="geometry" />
        </mxCell>
        <mxCell id="iiUd6FF1YS1lTuZ2aDN9-14" value="+ getContrasena()" style="text;html=1;align=left;verticalAlign=middle;whiteSpace=wrap;rounded=0;" vertex="1" parent="zkfFHV4jXpPFQw0GAbJ--0">
          <mxGeometry y="250" width="200" height="30" as="geometry" />
        </mxCell>
        <mxCell id="iiUd6FF1YS1lTuZ2aDN9-15" value="+ getContrasena()" style="text;html=1;align=left;verticalAlign=middle;whiteSpace=wrap;rounded=0;" vertex="1" parent="zkfFHV4jXpPFQw0GAbJ--0">
          <mxGeometry y="280" width="200" height="30" as="geometry" />
        </mxCell>
        <mxCell id="iiUd6FF1YS1lTuZ2aDN9-16" value="+ getCuentaBancaria()" style="text;html=1;align=left;verticalAlign=middle;whiteSpace=wrap;rounded=0;" vertex="1" parent="zkfFHV4jXpPFQw0GAbJ--0">
          <mxGeometry y="310" width="200" height="30" as="geometry" />
        </mxCell>
        <mxCell id="iiUd6FF1YS1lTuZ2aDN9-17" value="+ setCuentaBancaria()" style="text;html=1;align=left;verticalAlign=middle;whiteSpace=wrap;rounded=0;" vertex="1" parent="zkfFHV4jXpPFQw0GAbJ--0">
          <mxGeometry y="340" width="200" height="30" as="geometry" />
        </mxCell>
        <mxCell id="iiUd6FF1YS1lTuZ2aDN9-72" style="edgeStyle=orthogonalEdgeStyle;rounded=0;orthogonalLoop=1;jettySize=auto;html=1;entryX=0;entryY=0.5;entryDx=0;entryDy=0;" edge="1" parent="WIyWlLk6GJQsqaUBKTNV-1" source="zkfFHV4jXpPFQw0GAbJ--6" target="iiUd6FF1YS1lTuZ2aDN9-47">
          <mxGeometry relative="1" as="geometry" />
        </mxCell>
        <mxCell id="zkfFHV4jXpPFQw0GAbJ--6" value="Transaccion" style="swimlane;fontStyle=0;align=center;verticalAlign=top;childLayout=stackLayout;horizontal=1;startSize=26;horizontalStack=0;resizeParent=1;resizeLast=0;collapsible=1;marginBottom=0;rounded=0;shadow=0;strokeWidth=1;" parent="WIyWlLk6GJQsqaUBKTNV-1" vertex="1">
          <mxGeometry x="650" y="200" width="160" height="346" as="geometry">
            <mxRectangle x="130" y="380" width="160" height="26" as="alternateBounds" />
          </mxGeometry>
        </mxCell>
        <mxCell id="zkfFHV4jXpPFQw0GAbJ--7" value="- fecha: Date " style="text;align=left;verticalAlign=top;spacingLeft=4;spacingRight=4;overflow=hidden;rotatable=0;points=[[0,0.5],[1,0.5]];portConstraint=eastwest;" parent="zkfFHV4jXpPFQw0GAbJ--6" vertex="1">
          <mxGeometry y="26" width="160" height="26" as="geometry" />
        </mxCell>
        <mxCell id="zkfFHV4jXpPFQw0GAbJ--8" value="- id: int     " style="text;align=left;verticalAlign=top;spacingLeft=4;spacingRight=4;overflow=hidden;rotatable=0;points=[[0,0.5],[1,0.5]];portConstraint=eastwest;rounded=0;shadow=0;html=0;" parent="zkfFHV4jXpPFQw0GAbJ--6" vertex="1">
          <mxGeometry y="52" width="160" height="26" as="geometry" />
        </mxCell>
        <mxCell id="zkfFHV4jXpPFQw0GAbJ--10" value="- monto: double " style="text;align=left;verticalAlign=top;spacingLeft=4;spacingRight=4;overflow=hidden;rotatable=0;points=[[0,0.5],[1,0.5]];portConstraint=eastwest;fontStyle=0" parent="zkfFHV4jXpPFQw0GAbJ--6" vertex="1">
          <mxGeometry y="78" width="160" height="26" as="geometry" />
        </mxCell>
        <mxCell id="zkfFHV4jXpPFQw0GAbJ--11" value="- tipoTransaccion: String" style="text;align=left;verticalAlign=top;spacingLeft=4;spacingRight=4;overflow=hidden;rotatable=0;points=[[0,0.5],[1,0.5]];portConstraint=eastwest;" parent="zkfFHV4jXpPFQw0GAbJ--6" vertex="1">
          <mxGeometry y="104" width="160" height="26" as="geometry" />
        </mxCell>
        <mxCell id="zkfFHV4jXpPFQw0GAbJ--9" value="" style="line;html=1;strokeWidth=1;align=left;verticalAlign=middle;spacingTop=-1;spacingLeft=3;spacingRight=3;rotatable=0;labelPosition=right;points=[];portConstraint=eastwest;" parent="zkfFHV4jXpPFQw0GAbJ--6" vertex="1">
          <mxGeometry y="130" width="160" height="8" as="geometry" />
        </mxCell>
        <mxCell id="iiUd6FF1YS1lTuZ2aDN9-26" value="+ getFecha()  " style="text;align=left;verticalAlign=top;spacingLeft=4;spacingRight=4;overflow=hidden;rotatable=0;points=[[0,0.5],[1,0.5]];portConstraint=eastwest;" vertex="1" parent="zkfFHV4jXpPFQw0GAbJ--6">
          <mxGeometry y="138" width="160" height="26" as="geometry" />
        </mxCell>
        <mxCell id="iiUd6FF1YS1lTuZ2aDN9-27" value="+ setFecha()      " style="text;align=left;verticalAlign=top;spacingLeft=4;spacingRight=4;overflow=hidden;rotatable=0;points=[[0,0.5],[1,0.5]];portConstraint=eastwest;rounded=0;shadow=0;html=0;" vertex="1" parent="zkfFHV4jXpPFQw0GAbJ--6">
          <mxGeometry y="164" width="160" height="26" as="geometry" />
        </mxCell>
        <mxCell id="iiUd6FF1YS1lTuZ2aDN9-28" value="+ getId() " style="text;align=left;verticalAlign=top;spacingLeft=4;spacingRight=4;overflow=hidden;rotatable=0;points=[[0,0.5],[1,0.5]];portConstraint=eastwest;fontStyle=4" vertex="1" parent="zkfFHV4jXpPFQw0GAbJ--6">
          <mxGeometry y="190" width="160" height="26" as="geometry" />
        </mxCell>
        <mxCell id="iiUd6FF1YS1lTuZ2aDN9-29" value="+ setId() " style="text;align=left;verticalAlign=top;spacingLeft=4;spacingRight=4;overflow=hidden;rotatable=0;points=[[0,0.5],[1,0.5]];portConstraint=eastwest;" vertex="1" parent="zkfFHV4jXpPFQw0GAbJ--6">
          <mxGeometry y="216" width="160" height="26" as="geometry" />
        </mxCell>
        <mxCell id="iiUd6FF1YS1lTuZ2aDN9-30" value="+ getMonto()" style="text;align=left;verticalAlign=top;spacingLeft=4;spacingRight=4;overflow=hidden;rotatable=0;points=[[0,0.5],[1,0.5]];portConstraint=eastwest;" vertex="1" parent="zkfFHV4jXpPFQw0GAbJ--6">
          <mxGeometry y="242" width="160" height="26" as="geometry" />
        </mxCell>
        <mxCell id="iiUd6FF1YS1lTuZ2aDN9-31" value="+ setMonto() " style="text;align=left;verticalAlign=top;spacingLeft=4;spacingRight=4;overflow=hidden;rotatable=0;points=[[0,0.5],[1,0.5]];portConstraint=eastwest;" vertex="1" parent="zkfFHV4jXpPFQw0GAbJ--6">
          <mxGeometry y="268" width="160" height="26" as="geometry" />
        </mxCell>
        <mxCell id="iiUd6FF1YS1lTuZ2aDN9-32" value="+ getTipoTransaccion()" style="text;align=left;verticalAlign=top;spacingLeft=4;spacingRight=4;overflow=hidden;rotatable=0;points=[[0,0.5],[1,0.5]];portConstraint=eastwest;fontStyle=4" vertex="1" parent="zkfFHV4jXpPFQw0GAbJ--6">
          <mxGeometry y="294" width="160" height="26" as="geometry" />
        </mxCell>
        <mxCell id="iiUd6FF1YS1lTuZ2aDN9-33" value="+ setTipoTransaccion()" style="text;align=left;verticalAlign=top;spacingLeft=4;spacingRight=4;overflow=hidden;rotatable=0;points=[[0,0.5],[1,0.5]];portConstraint=eastwest;rounded=0;shadow=0;html=0;" vertex="1" parent="zkfFHV4jXpPFQw0GAbJ--6">
          <mxGeometry y="320" width="160" height="26" as="geometry" />
        </mxCell>
        <mxCell id="zkfFHV4jXpPFQw0GAbJ--13" value="IAccionesCuentaBancaria" style="swimlane;fontStyle=0;align=center;verticalAlign=top;childLayout=stackLayout;horizontal=1;startSize=26;horizontalStack=0;resizeParent=1;resizeLast=0;collapsible=1;marginBottom=0;rounded=0;shadow=0;strokeWidth=1;" parent="WIyWlLk6GJQsqaUBKTNV-1" vertex="1">
          <mxGeometry x="90" y="480" width="260" height="112" as="geometry">
            <mxRectangle x="340" y="380" width="170" height="26" as="alternateBounds" />
          </mxGeometry>
        </mxCell>
        <mxCell id="zkfFHV4jXpPFQw0GAbJ--14" value="+ depositarMonto(double)" style="text;align=left;verticalAlign=top;spacingLeft=4;spacingRight=4;overflow=hidden;rotatable=0;points=[[0,0.5],[1,0.5]];portConstraint=eastwest;" parent="zkfFHV4jXpPFQw0GAbJ--13" vertex="1">
          <mxGeometry y="26" width="260" height="26" as="geometry" />
        </mxCell>
        <mxCell id="iiUd6FF1YS1lTuZ2aDN9-24" value="+ transferirMonto(double, CuentaBancaria)" style="text;align=left;verticalAlign=top;spacingLeft=4;spacingRight=4;overflow=hidden;rotatable=0;points=[[0,0.5],[1,0.5]];portConstraint=eastwest;" vertex="1" parent="zkfFHV4jXpPFQw0GAbJ--13">
          <mxGeometry y="52" width="260" height="26" as="geometry" />
        </mxCell>
        <mxCell id="iiUd6FF1YS1lTuZ2aDN9-25" value="+ retirarMonto(double)" style="text;align=left;verticalAlign=top;spacingLeft=4;spacingRight=4;overflow=hidden;rotatable=0;points=[[0,0.5],[1,0.5]];portConstraint=eastwest;" vertex="1" parent="zkfFHV4jXpPFQw0GAbJ--13">
          <mxGeometry y="78" width="260" height="26" as="geometry" />
        </mxCell>
        <mxCell id="zkfFHV4jXpPFQw0GAbJ--17" value="CuentaBancaria" style="swimlane;fontStyle=0;align=center;verticalAlign=top;childLayout=stackLayout;horizontal=1;startSize=26;horizontalStack=0;resizeParent=1;resizeLast=0;collapsible=1;marginBottom=0;rounded=0;shadow=0;strokeWidth=1;" parent="WIyWlLk6GJQsqaUBKTNV-1" vertex="1">
          <mxGeometry x="380" y="130" width="220" height="350" as="geometry">
            <mxRectangle x="550" y="140" width="160" height="26" as="alternateBounds" />
          </mxGeometry>
        </mxCell>
        <mxCell id="zkfFHV4jXpPFQw0GAbJ--18" value="usuario: Usuario" style="text;align=left;verticalAlign=top;spacingLeft=4;spacingRight=4;overflow=hidden;rotatable=0;points=[[0,0.5],[1,0.5]];portConstraint=eastwest;" parent="zkfFHV4jXpPFQw0GAbJ--17" vertex="1">
          <mxGeometry y="26" width="220" height="26" as="geometry" />
        </mxCell>
        <mxCell id="zkfFHV4jXpPFQw0GAbJ--19" value="listaTransacciones: List&lt;Transaccion&gt;" style="text;align=left;verticalAlign=top;spacingLeft=4;spacingRight=4;overflow=hidden;rotatable=0;points=[[0,0.5],[1,0.5]];portConstraint=eastwest;rounded=0;shadow=0;html=0;" parent="zkfFHV4jXpPFQw0GAbJ--17" vertex="1">
          <mxGeometry y="52" width="220" height="26" as="geometry" />
        </mxCell>
        <mxCell id="zkfFHV4jXpPFQw0GAbJ--20" value="numCuenta: int" style="text;align=left;verticalAlign=top;spacingLeft=4;spacingRight=4;overflow=hidden;rotatable=0;points=[[0,0.5],[1,0.5]];portConstraint=eastwest;rounded=0;shadow=0;html=0;" parent="zkfFHV4jXpPFQw0GAbJ--17" vertex="1">
          <mxGeometry y="78" width="220" height="26" as="geometry" />
        </mxCell>
        <mxCell id="zkfFHV4jXpPFQw0GAbJ--21" value="saldo: double" style="text;align=left;verticalAlign=top;spacingLeft=4;spacingRight=4;overflow=hidden;rotatable=0;points=[[0,0.5],[1,0.5]];portConstraint=eastwest;rounded=0;shadow=0;html=0;" parent="zkfFHV4jXpPFQw0GAbJ--17" vertex="1">
          <mxGeometry y="104" width="220" height="26" as="geometry" />
        </mxCell>
        <mxCell id="zkfFHV4jXpPFQw0GAbJ--22" value="moneda: Moneda" style="text;align=left;verticalAlign=top;spacingLeft=4;spacingRight=4;overflow=hidden;rotatable=0;points=[[0,0.5],[1,0.5]];portConstraint=eastwest;rounded=0;shadow=0;html=0;" parent="zkfFHV4jXpPFQw0GAbJ--17" vertex="1">
          <mxGeometry y="130" width="220" height="26" as="geometry" />
        </mxCell>
        <mxCell id="zkfFHV4jXpPFQw0GAbJ--23" value="" style="line;html=1;strokeWidth=1;align=left;verticalAlign=middle;spacingTop=-1;spacingLeft=3;spacingRight=3;rotatable=0;labelPosition=right;points=[];portConstraint=eastwest;" parent="zkfFHV4jXpPFQw0GAbJ--17" vertex="1">
          <mxGeometry y="156" width="220" height="8" as="geometry" />
        </mxCell>
        <mxCell id="zkfFHV4jXpPFQw0GAbJ--24" value=" + depositarMonto()" style="text;align=left;verticalAlign=top;spacingLeft=4;spacingRight=4;overflow=hidden;rotatable=0;points=[[0,0.5],[1,0.5]];portConstraint=eastwest;" parent="zkfFHV4jXpPFQw0GAbJ--17" vertex="1">
          <mxGeometry y="164" width="220" height="26" as="geometry" />
        </mxCell>
        <mxCell id="zkfFHV4jXpPFQw0GAbJ--25" value="+ transferirMonto()" style="text;align=left;verticalAlign=top;spacingLeft=4;spacingRight=4;overflow=hidden;rotatable=0;points=[[0,0.5],[1,0.5]];portConstraint=eastwest;" parent="zkfFHV4jXpPFQw0GAbJ--17" vertex="1">
          <mxGeometry y="190" width="220" height="26" as="geometry" />
        </mxCell>
        <mxCell id="iiUd6FF1YS1lTuZ2aDN9-18" value="+ retirarMonto()" style="text;align=left;verticalAlign=top;spacingLeft=4;spacingRight=4;overflow=hidden;rotatable=0;points=[[0,0.5],[1,0.5]];portConstraint=eastwest;" vertex="1" parent="zkfFHV4jXpPFQw0GAbJ--17">
          <mxGeometry y="216" width="220" height="26" as="geometry" />
        </mxCell>
        <mxCell id="iiUd6FF1YS1lTuZ2aDN9-19" value="+ getSaldo() " style="text;align=left;verticalAlign=top;spacingLeft=4;spacingRight=4;overflow=hidden;rotatable=0;points=[[0,0.5],[1,0.5]];portConstraint=eastwest;" vertex="1" parent="zkfFHV4jXpPFQw0GAbJ--17">
          <mxGeometry y="242" width="220" height="26" as="geometry" />
        </mxCell>
        <mxCell id="iiUd6FF1YS1lTuZ2aDN9-20" value="+ setSaldo()" style="text;align=left;verticalAlign=top;spacingLeft=4;spacingRight=4;overflow=hidden;rotatable=0;points=[[0,0.5],[1,0.5]];portConstraint=eastwest;" vertex="1" parent="zkfFHV4jXpPFQw0GAbJ--17">
          <mxGeometry y="268" width="220" height="26" as="geometry" />
        </mxCell>
        <mxCell id="iiUd6FF1YS1lTuZ2aDN9-21" value="+ getMoneda()  " style="text;align=left;verticalAlign=top;spacingLeft=4;spacingRight=4;overflow=hidden;rotatable=0;points=[[0,0.5],[1,0.5]];portConstraint=eastwest;" vertex="1" parent="zkfFHV4jXpPFQw0GAbJ--17">
          <mxGeometry y="294" width="220" height="26" as="geometry" />
        </mxCell>
        <mxCell id="iiUd6FF1YS1lTuZ2aDN9-22" value="+ setMoneda() " style="text;align=left;verticalAlign=top;spacingLeft=4;spacingRight=4;overflow=hidden;rotatable=0;points=[[0,0.5],[1,0.5]];portConstraint=eastwest;" vertex="1" parent="zkfFHV4jXpPFQw0GAbJ--17">
          <mxGeometry y="320" width="220" height="26" as="geometry" />
        </mxCell>
        <mxCell id="iiUd6FF1YS1lTuZ2aDN9-34" value="" style="rounded=0;whiteSpace=wrap;html=1;align=left;fontStyle=0;fontColor=default;labelBackgroundColor=default;" vertex="1" parent="WIyWlLk6GJQsqaUBKTNV-1">
          <mxGeometry x="950" y="360" width="160" height="60" as="geometry" />
        </mxCell>
        <mxCell id="iiUd6FF1YS1lTuZ2aDN9-35" value="&lt;span style=&quot;font-family: &amp;quot;Söhne Mono&amp;quot;, Monaco, &amp;quot;Andale Mono&amp;quot;, &amp;quot;Ubuntu Mono&amp;quot;, monospace; font-size: 14px; white-space: pre;&quot;&gt;Deposito  &lt;/span&gt;" style="text;html=1;align=center;verticalAlign=middle;whiteSpace=wrap;rounded=0;fontStyle=0;fontColor=default;labelBackgroundColor=default;" vertex="1" parent="WIyWlLk6GJQsqaUBKTNV-1">
          <mxGeometry x="950" y="360" width="160" height="30" as="geometry" />
        </mxCell>
        <mxCell id="iiUd6FF1YS1lTuZ2aDN9-36" value="&lt;span style=&quot;font-family: &amp;quot;Söhne Mono&amp;quot;, Monaco, &amp;quot;Andale Mono&amp;quot;, &amp;quot;Ubuntu Mono&amp;quot;, monospace; font-size: 14px; white-space: pre;&quot;&gt;extends Transaccion&lt;/span&gt;" style="text;html=1;align=left;verticalAlign=middle;whiteSpace=wrap;rounded=0;fontStyle=0;fontColor=default;labelBackgroundColor=default;" vertex="1" parent="WIyWlLk6GJQsqaUBKTNV-1">
          <mxGeometry x="950" y="390" width="160" height="30" as="geometry" />
        </mxCell>
        <mxCell id="iiUd6FF1YS1lTuZ2aDN9-37" value="" style="endArrow=none;html=1;rounded=0;exitX=0;exitY=0;exitDx=0;exitDy=0;entryX=1;entryY=1;entryDx=0;entryDy=0;align=left;fontStyle=0;fontColor=default;labelBackgroundColor=default;" edge="1" parent="WIyWlLk6GJQsqaUBKTNV-1" source="iiUd6FF1YS1lTuZ2aDN9-36" target="iiUd6FF1YS1lTuZ2aDN9-35">
          <mxGeometry width="50" height="50" relative="1" as="geometry">
            <mxPoint x="1000" y="415" as="sourcePoint" />
            <mxPoint x="1050" y="365" as="targetPoint" />
            <Array as="points">
              <mxPoint x="1110" y="390" />
            </Array>
          </mxGeometry>
        </mxCell>
        <mxCell id="iiUd6FF1YS1lTuZ2aDN9-42" value="" style="rounded=0;whiteSpace=wrap;html=1;align=left;fontStyle=0;fontColor=default;labelBackgroundColor=default;" vertex="1" parent="WIyWlLk6GJQsqaUBKTNV-1">
          <mxGeometry x="950" y="434" width="160" height="60" as="geometry" />
        </mxCell>
        <mxCell id="iiUd6FF1YS1lTuZ2aDN9-43" value="&lt;span style=&quot;font-family: &amp;quot;Söhne Mono&amp;quot;, Monaco, &amp;quot;Andale Mono&amp;quot;, &amp;quot;Ubuntu Mono&amp;quot;, monospace; font-size: 14px; white-space: pre;&quot;&gt;Transferencia&lt;/span&gt;" style="text;html=1;align=center;verticalAlign=middle;whiteSpace=wrap;rounded=0;fontStyle=0;fontColor=default;labelBackgroundColor=default;" vertex="1" parent="WIyWlLk6GJQsqaUBKTNV-1">
          <mxGeometry x="950" y="434" width="160" height="30" as="geometry" />
        </mxCell>
        <mxCell id="iiUd6FF1YS1lTuZ2aDN9-44" value="&lt;span style=&quot;font-family: &amp;quot;Söhne Mono&amp;quot;, Monaco, &amp;quot;Andale Mono&amp;quot;, &amp;quot;Ubuntu Mono&amp;quot;, monospace; font-size: 14px; white-space: pre;&quot;&gt;extends Transaccion&lt;/span&gt;" style="text;html=1;align=left;verticalAlign=middle;whiteSpace=wrap;rounded=0;fontStyle=0;fontColor=default;labelBackgroundColor=default;" vertex="1" parent="WIyWlLk6GJQsqaUBKTNV-1">
          <mxGeometry x="950" y="464" width="160" height="30" as="geometry" />
        </mxCell>
        <mxCell id="iiUd6FF1YS1lTuZ2aDN9-45" value="" style="endArrow=none;html=1;rounded=0;exitX=0;exitY=0;exitDx=0;exitDy=0;entryX=1;entryY=1;entryDx=0;entryDy=0;align=left;fontStyle=0;fontColor=default;labelBackgroundColor=default;" edge="1" parent="WIyWlLk6GJQsqaUBKTNV-1" source="iiUd6FF1YS1lTuZ2aDN9-44" target="iiUd6FF1YS1lTuZ2aDN9-43">
          <mxGeometry width="50" height="50" relative="1" as="geometry">
            <mxPoint x="1000" y="489" as="sourcePoint" />
            <mxPoint x="1050" y="439" as="targetPoint" />
            <Array as="points">
              <mxPoint x="1110" y="464" />
            </Array>
          </mxGeometry>
        </mxCell>
        <mxCell id="iiUd6FF1YS1lTuZ2aDN9-46" value="" style="rounded=0;whiteSpace=wrap;html=1;align=left;fontStyle=0;fontColor=default;labelBackgroundColor=default;" vertex="1" parent="WIyWlLk6GJQsqaUBKTNV-1">
          <mxGeometry x="950" y="287" width="160" height="60" as="geometry" />
        </mxCell>
        <mxCell id="iiUd6FF1YS1lTuZ2aDN9-47" value="&lt;span style=&quot;font-family: &amp;quot;Söhne Mono&amp;quot;, Monaco, &amp;quot;Andale Mono&amp;quot;, &amp;quot;Ubuntu Mono&amp;quot;, monospace; font-size: 14px; text-align: left; white-space: pre;&quot;&gt;Retiro &lt;/span&gt;" style="text;html=1;align=center;verticalAlign=middle;whiteSpace=wrap;rounded=0;fontStyle=0;fontColor=default;labelBackgroundColor=default;" vertex="1" parent="WIyWlLk6GJQsqaUBKTNV-1">
          <mxGeometry x="950" y="287" width="160" height="30" as="geometry" />
        </mxCell>
        <mxCell id="iiUd6FF1YS1lTuZ2aDN9-48" value="&lt;span style=&quot;font-family: &amp;quot;Söhne Mono&amp;quot;, Monaco, &amp;quot;Andale Mono&amp;quot;, &amp;quot;Ubuntu Mono&amp;quot;, monospace; font-size: 14px; white-space: pre;&quot;&gt;extends Transaccion&lt;/span&gt;" style="text;html=1;align=left;verticalAlign=middle;whiteSpace=wrap;rounded=0;fontStyle=0;fontColor=default;labelBackgroundColor=default;" vertex="1" parent="WIyWlLk6GJQsqaUBKTNV-1">
          <mxGeometry x="950" y="317" width="160" height="30" as="geometry" />
        </mxCell>
        <mxCell id="iiUd6FF1YS1lTuZ2aDN9-49" value="" style="endArrow=none;html=1;rounded=0;exitX=0;exitY=0;exitDx=0;exitDy=0;entryX=1;entryY=1;entryDx=0;entryDy=0;align=left;fontStyle=0;fontColor=default;labelBackgroundColor=default;" edge="1" parent="WIyWlLk6GJQsqaUBKTNV-1" source="iiUd6FF1YS1lTuZ2aDN9-48" target="iiUd6FF1YS1lTuZ2aDN9-47">
          <mxGeometry width="50" height="50" relative="1" as="geometry">
            <mxPoint x="1000" y="342" as="sourcePoint" />
            <mxPoint x="1050" y="292" as="targetPoint" />
            <Array as="points">
              <mxPoint x="1110" y="317" />
            </Array>
          </mxGeometry>
        </mxCell>
        <mxCell id="iiUd6FF1YS1lTuZ2aDN9-50" value="Moneda" style="swimlane;fontStyle=0;align=center;verticalAlign=top;childLayout=stackLayout;horizontal=1;startSize=26;horizontalStack=0;resizeParent=1;resizeLast=0;collapsible=1;marginBottom=0;rounded=0;shadow=0;strokeWidth=1;" vertex="1" parent="WIyWlLk6GJQsqaUBKTNV-1">
          <mxGeometry x="360" y="630" width="260" height="112" as="geometry">
            <mxRectangle x="340" y="380" width="170" height="26" as="alternateBounds" />
          </mxGeometry>
        </mxCell>
        <mxCell id="iiUd6FF1YS1lTuZ2aDN9-51" value="+ getSimbolo()   " style="text;align=left;verticalAlign=top;spacingLeft=4;spacingRight=4;overflow=hidden;rotatable=0;points=[[0,0.5],[1,0.5]];portConstraint=eastwest;" vertex="1" parent="iiUd6FF1YS1lTuZ2aDN9-50">
          <mxGeometry y="26" width="260" height="26" as="geometry" />
        </mxCell>
        <mxCell id="iiUd6FF1YS1lTuZ2aDN9-52" value="+ getFactorConversion()" style="text;align=left;verticalAlign=top;spacingLeft=4;spacingRight=4;overflow=hidden;rotatable=0;points=[[0,0.5],[1,0.5]];portConstraint=eastwest;" vertex="1" parent="iiUd6FF1YS1lTuZ2aDN9-50">
          <mxGeometry y="52" width="260" height="26" as="geometry" />
        </mxCell>
        <mxCell id="iiUd6FF1YS1lTuZ2aDN9-53" value="+ convertir(double, Moneda)" style="text;align=left;verticalAlign=top;spacingLeft=4;spacingRight=4;overflow=hidden;rotatable=0;points=[[0,0.5],[1,0.5]];portConstraint=eastwest;" vertex="1" parent="iiUd6FF1YS1lTuZ2aDN9-50">
          <mxGeometry y="78" width="260" height="26" as="geometry" />
        </mxCell>
        <mxCell id="iiUd6FF1YS1lTuZ2aDN9-54" value="" style="rounded=0;whiteSpace=wrap;html=1;align=left;fontStyle=0;fontColor=default;labelBackgroundColor=default;" vertex="1" parent="WIyWlLk6GJQsqaUBKTNV-1">
          <mxGeometry x="660" y="610" width="160" height="60" as="geometry" />
        </mxCell>
        <mxCell id="iiUd6FF1YS1lTuZ2aDN9-55" value="&lt;div style=&quot;text-align: left;&quot;&gt;&lt;font face=&quot;Söhne Mono, Monaco, Andale Mono, Ubuntu Mono, monospace&quot;&gt;&lt;span style=&quot;font-size: 14px; white-space: pre;&quot;&gt;MonedaPesoChileno&lt;/span&gt;&lt;/font&gt;&amp;nbsp;&lt;/div&gt;" style="text;html=1;align=center;verticalAlign=middle;whiteSpace=wrap;rounded=0;fontStyle=0;fontColor=default;labelBackgroundColor=default;" vertex="1" parent="WIyWlLk6GJQsqaUBKTNV-1">
          <mxGeometry x="660" y="610" width="160" height="30" as="geometry" />
        </mxCell>
        <mxCell id="iiUd6FF1YS1lTuZ2aDN9-56" value="&lt;font face=&quot;Söhne Mono, Monaco, Andale Mono, Ubuntu Mono, monospace&quot;&gt;&lt;span style=&quot;font-size: 14px; white-space: pre;&quot;&gt;implements Moneda&lt;/span&gt;&lt;/font&gt;" style="text;html=1;align=left;verticalAlign=middle;whiteSpace=wrap;rounded=0;fontStyle=0;fontColor=default;labelBackgroundColor=default;" vertex="1" parent="WIyWlLk6GJQsqaUBKTNV-1">
          <mxGeometry x="660" y="640" width="160" height="30" as="geometry" />
        </mxCell>
        <mxCell id="iiUd6FF1YS1lTuZ2aDN9-57" value="" style="endArrow=none;html=1;rounded=0;exitX=0;exitY=0;exitDx=0;exitDy=0;entryX=1;entryY=1;entryDx=0;entryDy=0;align=left;fontStyle=0;fontColor=default;labelBackgroundColor=default;" edge="1" parent="WIyWlLk6GJQsqaUBKTNV-1" source="iiUd6FF1YS1lTuZ2aDN9-56" target="iiUd6FF1YS1lTuZ2aDN9-55">
          <mxGeometry width="50" height="50" relative="1" as="geometry">
            <mxPoint x="710" y="665" as="sourcePoint" />
            <mxPoint x="760" y="615" as="targetPoint" />
            <Array as="points">
              <mxPoint x="820" y="640" />
            </Array>
          </mxGeometry>
        </mxCell>
        <mxCell id="iiUd6FF1YS1lTuZ2aDN9-58" value="" style="rounded=0;whiteSpace=wrap;html=1;align=left;fontStyle=0;fontColor=default;labelBackgroundColor=default;" vertex="1" parent="WIyWlLk6GJQsqaUBKTNV-1">
          <mxGeometry x="660" y="750" width="160" height="60" as="geometry" />
        </mxCell>
        <mxCell id="iiUd6FF1YS1lTuZ2aDN9-59" value="&lt;div style=&quot;text-align: left;&quot;&gt;&lt;font face=&quot;Söhne Mono, Monaco, Andale Mono, Ubuntu Mono, monospace&quot;&gt;&lt;span style=&quot;font-size: 14px; white-space: pre;&quot;&gt;MonedaEuro&lt;/span&gt;&lt;/font&gt;&lt;/div&gt;" style="text;html=1;align=center;verticalAlign=middle;whiteSpace=wrap;rounded=0;fontStyle=0;fontColor=default;labelBackgroundColor=default;" vertex="1" parent="WIyWlLk6GJQsqaUBKTNV-1">
          <mxGeometry x="660" y="750" width="160" height="30" as="geometry" />
        </mxCell>
        <mxCell id="iiUd6FF1YS1lTuZ2aDN9-60" value="&lt;font face=&quot;Söhne Mono, Monaco, Andale Mono, Ubuntu Mono, monospace&quot;&gt;&lt;span style=&quot;font-size: 14px; white-space: pre;&quot;&gt;implements Moneda&lt;/span&gt;&lt;/font&gt;" style="text;html=1;align=left;verticalAlign=middle;whiteSpace=wrap;rounded=0;fontStyle=0;fontColor=default;labelBackgroundColor=default;" vertex="1" parent="WIyWlLk6GJQsqaUBKTNV-1">
          <mxGeometry x="660" y="780" width="160" height="30" as="geometry" />
        </mxCell>
        <mxCell id="iiUd6FF1YS1lTuZ2aDN9-61" value="" style="endArrow=none;html=1;rounded=0;exitX=0;exitY=0;exitDx=0;exitDy=0;entryX=1;entryY=1;entryDx=0;entryDy=0;align=left;fontStyle=0;fontColor=default;labelBackgroundColor=default;" edge="1" parent="WIyWlLk6GJQsqaUBKTNV-1" source="iiUd6FF1YS1lTuZ2aDN9-60" target="iiUd6FF1YS1lTuZ2aDN9-59">
          <mxGeometry width="50" height="50" relative="1" as="geometry">
            <mxPoint x="710" y="805" as="sourcePoint" />
            <mxPoint x="760" y="755" as="targetPoint" />
            <Array as="points">
              <mxPoint x="820" y="780" />
            </Array>
          </mxGeometry>
        </mxCell>
        <mxCell id="iiUd6FF1YS1lTuZ2aDN9-62" value="" style="rounded=0;whiteSpace=wrap;html=1;align=left;fontStyle=0;fontColor=default;labelBackgroundColor=default;" vertex="1" parent="WIyWlLk6GJQsqaUBKTNV-1">
          <mxGeometry x="660" y="680" width="160" height="60" as="geometry" />
        </mxCell>
        <mxCell id="iiUd6FF1YS1lTuZ2aDN9-63" value="&lt;div style=&quot;text-align: left;&quot;&gt;&lt;font face=&quot;Söhne Mono, Monaco, Andale Mono, Ubuntu Mono, monospace&quot;&gt;&lt;span style=&quot;font-size: 14px; white-space: pre;&quot;&gt;MonedaDolar&lt;/span&gt;&lt;/font&gt;&amp;nbsp;&lt;/div&gt;" style="text;html=1;align=center;verticalAlign=middle;whiteSpace=wrap;rounded=0;fontStyle=0;fontColor=default;labelBackgroundColor=default;" vertex="1" parent="WIyWlLk6GJQsqaUBKTNV-1">
          <mxGeometry x="660" y="680" width="160" height="30" as="geometry" />
        </mxCell>
        <mxCell id="iiUd6FF1YS1lTuZ2aDN9-64" value="&lt;font face=&quot;Söhne Mono, Monaco, Andale Mono, Ubuntu Mono, monospace&quot;&gt;&lt;span style=&quot;font-size: 14px; white-space: pre;&quot;&gt;implements Moneda&lt;/span&gt;&lt;/font&gt;" style="text;html=1;align=left;verticalAlign=middle;whiteSpace=wrap;rounded=0;fontStyle=0;fontColor=default;labelBackgroundColor=default;" vertex="1" parent="WIyWlLk6GJQsqaUBKTNV-1">
          <mxGeometry x="660" y="710" width="160" height="30" as="geometry" />
        </mxCell>
        <mxCell id="iiUd6FF1YS1lTuZ2aDN9-65" value="" style="endArrow=none;html=1;rounded=0;exitX=0;exitY=0;exitDx=0;exitDy=0;entryX=1;entryY=1;entryDx=0;entryDy=0;align=left;fontStyle=0;fontColor=default;labelBackgroundColor=default;" edge="1" parent="WIyWlLk6GJQsqaUBKTNV-1" source="iiUd6FF1YS1lTuZ2aDN9-64" target="iiUd6FF1YS1lTuZ2aDN9-63">
          <mxGeometry width="50" height="50" relative="1" as="geometry">
            <mxPoint x="710" y="735" as="sourcePoint" />
            <mxPoint x="760" y="685" as="targetPoint" />
            <Array as="points">
              <mxPoint x="820" y="710" />
            </Array>
          </mxGeometry>
        </mxCell>
        <mxCell id="iiUd6FF1YS1lTuZ2aDN9-66" value="1" style="endArrow=open;html=1;endSize=12;startArrow=diamondThin;startSize=14;startFill=0;edgeStyle=orthogonalEdgeStyle;align=left;verticalAlign=bottom;rounded=0;exitX=1.01;exitY=0.032;exitDx=0;exitDy=0;exitPerimeter=0;entryX=-0.009;entryY=0.034;entryDx=0;entryDy=0;entryPerimeter=0;" edge="1" parent="WIyWlLk6GJQsqaUBKTNV-1" source="zkfFHV4jXpPFQw0GAbJ--0" target="zkfFHV4jXpPFQw0GAbJ--17">
          <mxGeometry x="-1" y="3" relative="1" as="geometry">
            <mxPoint x="370" y="580" as="sourcePoint" />
            <mxPoint x="530" y="580" as="targetPoint" />
          </mxGeometry>
        </mxCell>
        <mxCell id="iiUd6FF1YS1lTuZ2aDN9-69" value="1" style="endArrow=open;html=1;endSize=12;startArrow=diamondThin;startSize=14;startFill=0;edgeStyle=orthogonalEdgeStyle;align=left;verticalAlign=bottom;rounded=0;exitX=1;exitY=0.029;exitDx=0;exitDy=0;exitPerimeter=0;entryX=-0.025;entryY=0.043;entryDx=0;entryDy=0;entryPerimeter=0;" edge="1" parent="WIyWlLk6GJQsqaUBKTNV-1" source="zkfFHV4jXpPFQw0GAbJ--17" target="zkfFHV4jXpPFQw0GAbJ--6">
          <mxGeometry x="-1" y="3" relative="1" as="geometry">
            <mxPoint x="380" y="520" as="sourcePoint" />
            <mxPoint x="540" y="520" as="targetPoint" />
          </mxGeometry>
        </mxCell>
        <mxCell id="iiUd6FF1YS1lTuZ2aDN9-75" style="edgeStyle=orthogonalEdgeStyle;rounded=0;orthogonalLoop=1;jettySize=auto;html=1;entryX=0;entryY=0.5;entryDx=0;entryDy=0;" edge="1" parent="WIyWlLk6GJQsqaUBKTNV-1" source="iiUd6FF1YS1lTuZ2aDN9-27" target="iiUd6FF1YS1lTuZ2aDN9-35">
          <mxGeometry relative="1" as="geometry" />
        </mxCell>
        <mxCell id="iiUd6FF1YS1lTuZ2aDN9-76" style="edgeStyle=orthogonalEdgeStyle;rounded=0;orthogonalLoop=1;jettySize=auto;html=1;entryX=0;entryY=0.5;entryDx=0;entryDy=0;" edge="1" parent="WIyWlLk6GJQsqaUBKTNV-1" source="iiUd6FF1YS1lTuZ2aDN9-27" target="iiUd6FF1YS1lTuZ2aDN9-43">
          <mxGeometry relative="1" as="geometry" />
        </mxCell>
        <mxCell id="iiUd6FF1YS1lTuZ2aDN9-77" value="" style="endArrow=block;dashed=1;endFill=0;endSize=12;html=1;rounded=0;exitX=0.5;exitY=1;exitDx=0;exitDy=0;entryX=1.019;entryY=0.116;entryDx=0;entryDy=0;entryPerimeter=0;" edge="1" parent="WIyWlLk6GJQsqaUBKTNV-1" source="zkfFHV4jXpPFQw0GAbJ--17" target="zkfFHV4jXpPFQw0GAbJ--13">
          <mxGeometry width="160" relative="1" as="geometry">
            <mxPoint x="350" y="410" as="sourcePoint" />
            <mxPoint x="510" y="410" as="targetPoint" />
          </mxGeometry>
        </mxCell>
        <mxCell id="iiUd6FF1YS1lTuZ2aDN9-78" value="" style="endArrow=none;html=1;edgeStyle=orthogonalEdgeStyle;rounded=0;exitX=0.5;exitY=1;exitDx=0;exitDy=0;entryX=0.5;entryY=0;entryDx=0;entryDy=0;" edge="1" parent="WIyWlLk6GJQsqaUBKTNV-1" source="zkfFHV4jXpPFQw0GAbJ--17" target="iiUd6FF1YS1lTuZ2aDN9-50">
          <mxGeometry relative="1" as="geometry">
            <mxPoint x="350" y="410" as="sourcePoint" />
            <mxPoint x="510" y="410" as="targetPoint" />
          </mxGeometry>
        </mxCell>
        <mxCell id="iiUd6FF1YS1lTuZ2aDN9-79" value="parent" style="edgeLabel;resizable=0;html=1;align=left;verticalAlign=bottom;" connectable="0" vertex="1" parent="iiUd6FF1YS1lTuZ2aDN9-78">
          <mxGeometry x="-1" relative="1" as="geometry" />
        </mxCell>
        <mxCell id="iiUd6FF1YS1lTuZ2aDN9-80" value="child" style="edgeLabel;resizable=0;html=1;align=right;verticalAlign=bottom;" connectable="0" vertex="1" parent="iiUd6FF1YS1lTuZ2aDN9-78">
          <mxGeometry x="1" relative="1" as="geometry" />
        </mxCell>
        <mxCell id="iiUd6FF1YS1lTuZ2aDN9-81" style="edgeStyle=orthogonalEdgeStyle;rounded=0;orthogonalLoop=1;jettySize=auto;html=1;entryX=0;entryY=0.5;entryDx=0;entryDy=0;" edge="1" parent="WIyWlLk6GJQsqaUBKTNV-1" source="iiUd6FF1YS1lTuZ2aDN9-52" target="iiUd6FF1YS1lTuZ2aDN9-55">
          <mxGeometry relative="1" as="geometry" />
        </mxCell>
        <mxCell id="iiUd6FF1YS1lTuZ2aDN9-82" style="edgeStyle=orthogonalEdgeStyle;rounded=0;orthogonalLoop=1;jettySize=auto;html=1;entryX=0;entryY=0.5;entryDx=0;entryDy=0;" edge="1" parent="WIyWlLk6GJQsqaUBKTNV-1" source="iiUd6FF1YS1lTuZ2aDN9-52" target="iiUd6FF1YS1lTuZ2aDN9-63">
          <mxGeometry relative="1" as="geometry" />
        </mxCell>
        <mxCell id="iiUd6FF1YS1lTuZ2aDN9-83" style="edgeStyle=orthogonalEdgeStyle;rounded=0;orthogonalLoop=1;jettySize=auto;html=1;entryX=0;entryY=0.5;entryDx=0;entryDy=0;" edge="1" parent="WIyWlLk6GJQsqaUBKTNV-1" source="iiUd6FF1YS1lTuZ2aDN9-52" target="iiUd6FF1YS1lTuZ2aDN9-59">
          <mxGeometry relative="1" as="geometry" />
        </mxCell>
      </root>
    </mxGraphModel>
  </diagram>
</mxfile>
